<?xml version="1.0" encoding="utf-8"?>
<!-- Generator: Adobe Illustrator 16.0.0, SVG Export Plug-In . SVG Version: 6.00 Build 0)  -->
<!DOCTYPE svg PUBLIC "-//W3C//DTD SVG 1.1//EN" "http://www.w3.org/Graphics/SVG/1.1/DTD/svg11.dtd">
<svg version="1.1" id="Layer_1" xmlns="http://www.w3.org/2000/svg" xmlns:xlink="http://www.w3.org/1999/xlink" x="0px" y="0px"
	 width="800px" height="800px" viewBox="0 0 800 800" enable-background="new 0 0 800 800" xml:space="preserve">
<g id="XMLID_1_">
	<path id="XMLID_3_" fill="#021ABC" d="M42.03,28.76c6.958,1.73,9.023,5.431,10.787,9.75c6.394,15.66,12.781,31.331,19.644,46.787
		c2.465,5.552,5.829,10.861,9.614,15.619c2.607,3.276,6.648,5.412,9.414,7.564c7.952-2.856,10.254-6.18,10.436-13.92
		c0.224-9.517,0.024-19.058,0.649-28.547c0.27-4.093,1.555-8.379,3.409-12.059c5.32-10.567,11.044-20.939,16.884-31.232
		c1.759-3.099,4.421-5.685,6.369-8.13c6.817,1.685,9.548,6.113,11.114,10.498c6.87,19.235,14.041,38.439,19.288,58.137
		c2.037,7.646-0.416,16.604-1.37,24.902c-1.291,11.231,5.802,21.562,16.787,24.063c21.891,4.984,43.5,11.275,63.353,21.729
		c11.468,6.039,21.846,14.462,31.91,22.787c19.044,15.755,37.486,32.237,56.221,48.367c13.431,11.563,29.595,15.603,46.778,17.156
		c39.509,3.57,76.509-6.156,113.418-19.053c34.391-12.018,69.631-21.617,104.564-32.057c6.83-2.041,13.959-3.111,20.969-4.523
		c15.352-3.094,29.041,2.771,42.725,8.23c9.402,3.751,18.48,8.323,27.937,11.914c9.933,3.772,16.15,11.707,23.665,18.498
		c16.977,15.344,26.643,34.742,33.486,55.797c4.438,13.651,4.188,27.862,2.287,42.107c-3.376,25.291-6.334,50.637-9.517,76.352
		c-176.779,0-352.225,0-526.838,0c-5.913-11.43-11.086-22.786-17.457-33.425c-9.293-15.521-20.938-29.124-36.504-38.894
		c-8.996-5.647-14.063-5.063-22.032,2.083c-9.254,8.297-18.136,17.135-28.104,24.483c-23.853,17.581-49.434,17.442-75.516,5.18
		c-12.941-6.083-17.844-16.545-16.04-30.614c2.283-17.801,4.599-35.57,11.768-52.25c0.998-2.318,2.264-4.547,3.625-6.679
		c5.536-8.681,7.111-18.232,7.567-28.391c0.69-15.371,1.921-30.749,3.75-46.023c1.085-9.068,5.191-17.294,10.803-24.645
		c1.535-2.011,2.945-4.148,4.155-6.37c4.636-8.517,2.807-15.895-4.162-22.761c-11.563-11.395-21.528-24.136-24.499-40.601
		c-2.982-16.538-0.571-32.832,4.742-48.677c1.54-4.592,3.091-9.312,5.558-13.42C35.931,34.724,39.434,31.701,42.03,28.76z"/>
	<path id="XMLID_4_" fill="#FE0302" d="M210.682,420.758c172.494,0,343.94,0,515.922,0c0.413,3.653,0.888,6.934,1.138,10.23
		c1.089,14.292,9.631,25.037,17.255,36.177c5.127,7.494,10.2,15.088,16.039,22.011c4.433,5.254,9.437,10.526,15.254,14.009
		c9.887,5.921,14.281,14.032,13.652,25.141c-0.493,8.645-1.108,17.299-2.178,25.886c-0.697,5.608-2.228,11.143-7.535,14.893
		c-5.398-2.875-5.071-8.333-5.595-12.757c-0.791-6.693-3.854-11.593-7.922-16.761c-3.19-4.054-6.31-10.167-5.679-14.857
		c1.954-14.54-6.639-23.136-15.059-32.399c-5.669-6.235-10.585-13.151-16.232-19.408c-2.403-2.665-5.813-4.42-8.104-6.104
		c-5.889,1.593-7.711,4.942-8.161,9.26c-1.57,15.056-1.294,30.02,2.6,44.75c5.896,22.294,11.354,44.72,17.997,66.791
		c3.509,11.657,3.021,22.356-1.976,33.146c-0.532,1.149-0.901,2.57-1.801,3.323c-8.978,7.523-8.45,17.816-8.531,28.046
		c-0.159,19.903-0.197,39.814-0.983,59.696c-0.215,5.464-2.181,11.186-4.625,16.161c-4.747,9.668-10.529,18.819-15.649,28.313
		c-7.227,13.402-15.725,25.955-32.067,28.039c-11.609,1.482-23.677,1.374-35.296-0.034c-6.188-0.752-12.544-4.939-17.599-9.072
		c-7.375-6.029-7.461-11.202-1.532-18.632c3.142-3.932,7.169-7.16,10.819-10.683c7.767-7.49,15.733-14.786,23.198-22.563
		c1.955-2.037,2.989-5.479,3.335-8.406c0.49-4.166,0.066-8.459-0.166-12.684c-0.493-9.047,0.401-18.095,4.964-25.837
		c7.886-13.383,7.827-27.764,7.374-42.405c-0.425-13.758-1.399-27.539-0.933-41.267c0.578-16.967-4.495-31.917-12.718-46.384
		c-6.032-10.615-11.01-21.824-16.687-32.647c-2.509-4.782-6.246-8.453-11.583-9.844c-6.414,4.241-7.699,6.547-5.502,13.213
		c2.638,7.995,5.213,16.196,9.271,23.498c7.261,13.063,4.766,31.543-7.994,41.656c-14.377,11.396-27.391,24.529-40.747,37.174
		c-1.912,1.811-3.251,5.062-3.407,7.732c-0.504,8.634-1.176,17.4-0.229,25.944c1.527,13.834-3.098,24.73-13.833,32.824
		c-13.022,9.821-20.218,23.618-27.433,37.537c-3.599,6.949-6.721,14.223-11.027,20.711c-4.739,7.144-10.813,13.109-20.508,13.008
		c-10.327-0.109-20.661,0.098-30.988-0.124c-6.896-0.147-12.481-3.556-17.436-8.132c-5.993-5.539-7.362-10.009-2.97-16.787
		c7.225-11.154,15.197-21.836,23.058-32.566c15.114-20.627,30.417-41.115,45.535-61.74c4.486-6.121,6.441-13.066,6.782-20.755
		c0.208-4.714,1.005-10.05,3.442-13.9c8.834-13.959,7.44-27.932,0.867-41.752c-9.074-19.079-18.797-37.851-28.37-56.689
		c-4.407-8.671-14.7-13.563-26.023-11.751c-12.066,1.933-23.961,4.917-36.007,7.012c-25.049,4.357-50.322,6.474-75.746,6.852
		c-3.165,0.046-6.634-0.202-9.411,0.979c-4.087,1.741-8.903,3.788-11.286,7.189c-16.887,24.109-27.705,50.863-30.96,80.158
		c-1.816,16.338-2.302,32.8,6.129,48.284c3.131,5.751,4.442,12.83,5.195,19.462c1.061,9.357,6.1,15.563,13.335,20.509
		c4.178,2.854,8.619,5.332,12.993,7.89c9.735,5.696,10.865,9.9,3.443,18.298c-13.578,15.365-27.55,30.384-41.538,45.38
		c-4.848,5.198-10.256,4.648-14.535-0.887c-0.904-1.168-1.521-2.974-2.689-3.441c-2.971-1.185-6.302-2.674-9.244-2.269
		c-1.719,0.236-3.807,3.713-4.258,6.019c-0.924,4.723-1.085,9.636-1.137,14.473c-0.057,5.352-2.938,8.022-7.781,8.054
		c-23.508,0.152-47.019,0.211-70.524-0.073c-7.32-0.09-11.312-5.259-9.722-12.456c1.166-5.274,2.853-10.798,5.77-15.251
		c9.261-14.137,19.072-27.921,28.941-41.646c4.995-6.947,8.042-14.264,7.738-22.963c-0.479-13.688,1.261-26.883,7.651-39.395
		c4.623-9.053,4.967-19.14,4.447-29.187c-1.236-23.883-2.25-47.779-3.79-71.642c-0.403-6.248-2.127-12.462-3.71-18.571
		c-6.148-23.722-12.521-47.387-18.732-71.095c-2.411-9.2-4.632-18.451-6.891-27.692
		C211.349,425.179,211.131,423.328,210.682,420.758z"/>
	<polygon id="XMLID_5_" fill="#FEFEFE" points="272.107,279.577 283.638,315.332 321.207,315.249 290.765,337.265 302.453,372.97 
		272.107,350.82 241.763,372.97 253.449,337.265 223.007,315.249 260.576,315.332 	"/>
	<polygon id="XMLID_6_" fill="#FEFEFE" points="403.714,279.577 415.247,315.332 452.815,315.249 422.371,337.265 434.061,372.97 
		403.714,350.82 373.369,372.97 385.056,337.265 354.615,315.249 392.183,315.332 	"/>
	<polygon id="XMLID_7_" fill="#FEFEFE" points="536.921,279.577 548.451,315.332 586.02,315.249 555.578,337.265 567.265,372.97 
		536.921,350.82 506.575,372.97 518.262,337.265 487.82,315.249 525.389,315.332 	"/>
	<polygon id="XMLID_8_" fill="#FEFEFE" points="665.435,279.577 676.965,315.332 714.533,315.249 684.091,337.265 695.78,372.97 
		665.435,350.82 635.089,372.97 646.775,337.265 616.336,315.249 653.902,315.332 	"/>
</g>
</svg>
